{
    "asset" : {
        "generator" : "Khronos glTF Blender I/O v1.2.75",
        "version" : "2.0"
    },
    "scene" : 0,
    "scenes" : [
        {
            "name" : "Scene",
            "nodes" : [
                0
            ]
        }
    ],
    "nodes" : [
        {
            "mesh" : 0,
            "name" : "Cylinder"
        }
    ],
    "materials" : [
        {
            "emissiveFactor" : [
                0,
                0,
                0
            ],
            "name" : "Material.001",
            "pbrMetallicRoughness" : {
                "baseColorTexture" : {
                    "index" : 0,
                    "texCoord" : 0
                },
                "metallicFactor" : 0,
                "roughnessFactor" : 0.5
            }
        }
    ],
    "meshes" : [
        {
            "name" : "Cylinder",
            "primitives" : [
                {
                    "attributes" : {
                        "POSITION" : 0,
                        "NORMAL" : 1,
                        "TEXCOORD_0" : 2
                    },
                    "indices" : 3,
                    "material" : 0
                }
            ]
        }
    ],
    "textures" : [
        {
            "source" : 0
        }
    ],
    "images" : [
        {
            "bufferView" : 4,
            "mimeType" : "image/png",
            "name" : "matsimple"
        }
    ],
    "accessors" : [
        {
            "bufferView" : 0,
            "componentType" : 5126,
            "count" : 366,
            "max" : [
                0.01692066341638565,
                0.48215290904045105,
                0.11780934780836105
            ],
            "min" : [
                -0.016920654103159904,
                -0.09192095696926117,
                -0.051628176122903824
            ],
            "type" : "VEC3"
        },
        {
            "bufferView" : 1,
            "componentType" : 5126,
            "count" : 366,
            "type" : "VEC3"
        },
        {
            "bufferView" : 2,
            "componentType" : 5126,
            "count" : 366,
            "type" : "VEC2"
        },
        {
            "bufferView" : 3,
            "componentType" : 5123,
            "count" : 600,
            "type" : "SCALAR"
        }
    ],
    "bufferViews" : [
        {
            "buffer" : 0,
            "byteLength" : 4392,
            "byteOffset" : 0
        },
        {
            "buffer" : 0,
            "byteLength" : 4392,
            "byteOffset" : 4392
        },
        {
            "buffer" : 0,
            "byteLength" : 2928,
            "byteOffset" : 8784
        },
        {
            "buffer" : 0,
            "byteLength" : 1200,
            "byteOffset" : 11712
        },
        {
            "buffer" : 0,
            "byteLength" : 166,
            "byteOffset" : 12912
        }
    ],
    "buffers" : [
        {
            "byteLength" : 13080,
            "uri" : "data:application/octet-stream;base64,"
        }
    ]
}
