{
    "asset" : {
        "generator" : "Khronos glTF Blender I/O v1.2.75",
        "version" : "2.0"
    },
    "scene" : 0,
    "scenes" : [
        {
            "name" : "Scene",
            "nodes" : [
                0
            ]
        }
    ],
    "nodes" : [
        {
            "mesh" : 0,
            "name" : "Cylinder.001"
        }
    ],
    "materials" : [
        {
            "emissiveFactor" : [
                0,
                0,
                0
            ],
            "name" : "Material.003",
            "pbrMetallicRoughness" : {
                "baseColorTexture" : {
                    "index" : 0,
                    "texCoord" : 0
                },
                "metallicFactor" : 0,
                "roughnessFactor" : 0.5
            }
        }
    ],
    "meshes" : [
        {
            "name" : "Cylinder.002",
            "primitives" : [
                {
                    "attributes" : {
                        "POSITION" : 0,
                        "NORMAL" : 1,
                        "TEXCOORD_0" : 2
                    },
                    "indices" : 3,
                    "material" : 0
                }
            ]
        }
    ],
    "textures" : [
        {
            "source" : 0
        }
    ],
    "images" : [
        {
            "bufferView" : 4,
            "mimeType" : "image/png",
            "name" : "matsimple"
        }
    ],
    "accessors" : [
        {
            "bufferView" : 0,
            "componentType" : 5126,
            "count" : 1301,
            "max" : [
                0.01789354532957077,
                0.26456907391548157,
                0.12265606224536896
            ],
            "min" : [
                -0.017893483862280846,
                -0.08913633972406387,
                -0.024012422189116478
            ],
            "type" : "VEC3"
        },
        {
            "bufferView" : 1,
            "componentType" : 5126,
            "count" : 1301,
            "type" : "VEC3"
        },
        {
            "bufferView" : 2,
            "componentType" : 5126,
            "count" : 1301,
            "type" : "VEC2"
        },
        {
            "bufferView" : 3,
            "componentType" : 5123,
            "count" : 1974,
            "type" : "SCALAR"
        }
    ],
    "bufferViews" : [
        {
            "buffer" : 0,
            "byteLength" : 15612,
            "byteOffset" : 0
        },
        {
            "buffer" : 0,
            "byteLength" : 15612,
            "byteOffset" : 15612
        },
        {
            "buffer" : 0,
            "byteLength" : 10408,
            "byteOffset" : 31224
        },
        {
            "buffer" : 0,
            "byteLength" : 3948,
            "byteOffset" : 41632
        },
        {
            "buffer" : 0,
            "byteLength" : 166,
            "byteOffset" : 45580
        }
    ],
    "buffers" : [
        {
            "byteLength" : 45748,
            "uri" : "data:application/octet-stream;base64,"
        }
    ]
}
