{
    "asset" : {
        "generator" : "Khronos glTF Blender I/O v1.2.75",
        "version" : "2.0"
    },
    "scene" : 0,
    "scenes" : [
        {
            "name" : "Scene",
            "nodes" : [
                0
            ]
        }
    ],
    "nodes" : [
        {
            "mesh" : 0,
            "name" : "Cylinder"
        }
    ],
    "materials" : [
        {
            "doubleSided" : true,
            "emissiveFactor" : [
                0,
                0,
                0
            ],
            "name" : "Material.002",
            "pbrMetallicRoughness" : {
                "baseColorTexture" : {
                    "index" : 0,
                    "texCoord" : 0
                },
                "metallicFactor" : 0,
                "roughnessFactor" : 0.5
            }
        }
    ],
    "meshes" : [
        {
            "name" : "Cylinder",
            "primitives" : [
                {
                    "attributes" : {
                        "POSITION" : 0,
                        "NORMAL" : 1,
                        "TEXCOORD_0" : 2
                    },
                    "indices" : 3,
                    "material" : 0
                }
            ]
        }
    ],
    "textures" : [
        {
            "source" : 0
        }
    ],
    "images" : [
        {
            "bufferView" : 4,
            "mimeType" : "image/png",
            "name" : "matsimple"
        }
    ],
    "accessors" : [
        {
            "bufferView" : 0,
            "componentType" : 5126,
            "count" : 1707,
            "max" : [
                0.021076155826449394,
                0.29406100511550903,
                0.015075791627168655
            ],
            "min" : [
                -0.13681811094284058,
                -0.024397019296884537,
                -0.015075791627168655
            ],
            "type" : "VEC3"
        },
        {
            "bufferView" : 1,
            "componentType" : 5126,
            "count" : 1707,
            "type" : "VEC3"
        },
        {
            "bufferView" : 2,
            "componentType" : 5126,
            "count" : 1707,
            "type" : "VEC2"
        },
        {
            "bufferView" : 3,
            "componentType" : 5123,
            "count" : 2850,
            "type" : "SCALAR"
        }
    ],
    "bufferViews" : [
        {
            "buffer" : 0,
            "byteLength" : 20484,
            "byteOffset" : 0
        },
        {
            "buffer" : 0,
            "byteLength" : 20484,
            "byteOffset" : 20484
        },
        {
            "buffer" : 0,
            "byteLength" : 13656,
            "byteOffset" : 40968
        },
        {
            "buffer" : 0,
            "byteLength" : 5700,
            "byteOffset" : 54624
        },
        {
            "buffer" : 0,
            "byteLength" : 166,
            "byteOffset" : 60324
        }
    ],
    "buffers" : [
        {
            "byteLength" : 60492,
            "uri" : "data:application/octet-stream;base64,"
        }
    ]
}
