{
    "asset" : {
        "generator" : "Khronos glTF Blender I/O v1.2.75",
        "version" : "2.0"
    },
    "scene" : 0,
    "scenes" : [
        {
            "name" : "Scene",
            "nodes" : [
                0
            ]
        }
    ],
    "nodes" : [
        {
            "mesh" : 0,
            "name" : "Cylinder.002"
        }
    ],
    "materials" : [
        {
            "doubleSided" : true,
            "emissiveFactor" : [
                0,
                0,
                0
            ],
            "name" : "Material",
            "pbrMetallicRoughness" : {
                "baseColorTexture" : {
                    "index" : 0,
                    "texCoord" : 0
                },
                "metallicFactor" : 0,
                "roughnessFactor" : 0.5
            }
        }
    ],
    "meshes" : [
        {
            "name" : "Cylinder.002",
            "primitives" : [
                {
                    "attributes" : {
                        "POSITION" : 0,
                        "NORMAL" : 1,
                        "TEXCOORD_0" : 2
                    },
                    "indices" : 3,
                    "material" : 0
                }
            ]
        }
    ],
    "textures" : [
        {
            "source" : 0
        }
    ],
    "images" : [
        {
            "bufferView" : 4,
            "mimeType" : "image/png",
            "name" : "matsimple"
        }
    ],
    "accessors" : [
        {
            "bufferView" : 0,
            "componentType" : 5126,
            "count" : 856,
            "max" : [
                0.015752457082271576,
                0.08320064842700958,
                0.18916937708854675
            ],
            "min" : [
                -0.015752457082271576,
                -0.029160961508750916,
                -0.1891748607158661
            ],
            "type" : "VEC3"
        },
        {
            "bufferView" : 1,
            "componentType" : 5126,
            "count" : 856,
            "type" : "VEC3"
        },
        {
            "bufferView" : 2,
            "componentType" : 5126,
            "count" : 856,
            "type" : "VEC2"
        },
        {
            "bufferView" : 3,
            "componentType" : 5123,
            "count" : 1302,
            "type" : "SCALAR"
        }
    ],
    "bufferViews" : [
        {
            "buffer" : 0,
            "byteLength" : 10272,
            "byteOffset" : 0
        },
        {
            "buffer" : 0,
            "byteLength" : 10272,
            "byteOffset" : 10272
        },
        {
            "buffer" : 0,
            "byteLength" : 6848,
            "byteOffset" : 20544
        },
        {
            "buffer" : 0,
            "byteLength" : 2604,
            "byteOffset" : 27392
        },
        {
            "buffer" : 0,
            "byteLength" : 166,
            "byteOffset" : 29996
        }
    ],
    "buffers" : [
        {
            "byteLength" : 30164,
            "uri" : "data:application/octet-stream;base64,"
        }
    ]
}
