{
    "asset" : {
        "generator" : "Khronos glTF Blender I/O v1.2.75",
        "version" : "2.0"
    },
    "scene" : 0,
    "scenes" : [
        {
            "name" : "Scene",
            "nodes" : [
                0
            ]
        }
    ],
    "nodes" : [
        {
            "mesh" : 0,
            "name" : "Cylinder.001"
        }
    ],
    "materials" : [
        {
            "doubleSided" : true,
            "emissiveFactor" : [
                0,
                0,
                0
            ],
            "name" : "Material.008",
            "pbrMetallicRoughness" : {
                "baseColorTexture" : {
                    "index" : 0,
                    "texCoord" : 0
                },
                "metallicFactor" : 0,
                "roughnessFactor" : 0.5
            }
        }
    ],
    "meshes" : [
        {
            "name" : "Cylinder.011",
            "primitives" : [
                {
                    "attributes" : {
                        "POSITION" : 0,
                        "NORMAL" : 1,
                        "TEXCOORD_0" : 2
                    },
                    "indices" : 3,
                    "material" : 0
                }
            ]
        }
    ],
    "textures" : [
        {
            "source" : 0
        }
    ],
    "images" : [
        {
            "bufferView" : 4,
            "mimeType" : "image/png",
            "name" : "matsimple"
        }
    ],
    "accessors" : [
        {
            "bufferView" : 0,
            "componentType" : 5126,
            "count" : 948,
            "max" : [
                0.007815059274435043,
                0.14504390954971313,
                0.0564897321164608
            ],
            "min" : [
                -0.007815055549144745,
                -0.008668392896652222,
                -0.05648971349000931
            ],
            "type" : "VEC3"
        },
        {
            "bufferView" : 1,
            "componentType" : 5126,
            "count" : 948,
            "type" : "VEC3"
        },
        {
            "bufferView" : 2,
            "componentType" : 5126,
            "count" : 948,
            "type" : "VEC2"
        },
        {
            "bufferView" : 3,
            "componentType" : 5123,
            "count" : 1452,
            "type" : "SCALAR"
        }
    ],
    "bufferViews" : [
        {
            "buffer" : 0,
            "byteLength" : 11376,
            "byteOffset" : 0
        },
        {
            "buffer" : 0,
            "byteLength" : 11376,
            "byteOffset" : 11376
        },
        {
            "buffer" : 0,
            "byteLength" : 7584,
            "byteOffset" : 22752
        },
        {
            "buffer" : 0,
            "byteLength" : 2904,
            "byteOffset" : 30336
        },
        {
            "buffer" : 0,
            "byteLength" : 166,
            "byteOffset" : 33240
        }
    ],
    "buffers" : [
        {
            "byteLength" : 33408,
            "uri" : "data:application/octet-stream;base64,"
        }
    ]
}
