{
    "asset" : {
        "generator" : "Khronos glTF Blender I/O v1.2.75",
        "version" : "2.0"
    },
    "scene" : 0,
    "scenes" : [
        {
            "name" : "Scene",
            "nodes" : [
                0
            ]
        }
    ],
    "nodes" : [
        {
            "mesh" : 0,
            "name" : "Cylinder"
        }
    ],
    "materials" : [
        {
            "emissiveFactor" : [
                0,
                0,
                0
            ],
            "name" : "Material.001",
            "pbrMetallicRoughness" : {
                "baseColorTexture" : {
                    "index" : 0,
                    "texCoord" : 0
                },
                "metallicFactor" : 0,
                "roughnessFactor" : 0.5
            }
        }
    ],
    "meshes" : [
        {
            "name" : "Cylinder",
            "primitives" : [
                {
                    "attributes" : {
                        "POSITION" : 0,
                        "NORMAL" : 1,
                        "TEXCOORD_0" : 2
                    },
                    "indices" : 3,
                    "material" : 0
                }
            ]
        }
    ],
    "textures" : [
        {
            "source" : 0
        }
    ],
    "images" : [
        {
            "bufferView" : 4,
            "mimeType" : "image/png",
            "name" : "matsimple"
        }
    ],
    "accessors" : [
        {
            "bufferView" : 0,
            "componentType" : 5126,
            "count" : 807,
            "max" : [
                0.08168695867061615,
                1.2095081806182861,
                0.01694299466907978
            ],
            "min" : [
                -0.08168694376945496,
                -0.025921203196048737,
                -0.01694299466907978
            ],
            "type" : "VEC3"
        },
        {
            "bufferView" : 1,
            "componentType" : 5126,
            "count" : 807,
            "type" : "VEC3"
        },
        {
            "bufferView" : 2,
            "componentType" : 5126,
            "count" : 807,
            "type" : "VEC2"
        },
        {
            "bufferView" : 3,
            "componentType" : 5123,
            "count" : 1302,
            "type" : "SCALAR"
        }
    ],
    "bufferViews" : [
        {
            "buffer" : 0,
            "byteLength" : 9684,
            "byteOffset" : 0
        },
        {
            "buffer" : 0,
            "byteLength" : 9684,
            "byteOffset" : 9684
        },
        {
            "buffer" : 0,
            "byteLength" : 6456,
            "byteOffset" : 19368
        },
        {
            "buffer" : 0,
            "byteLength" : 2604,
            "byteOffset" : 25824
        },
        {
            "buffer" : 0,
            "byteLength" : 166,
            "byteOffset" : 28428
        }
    ],
    "buffers" : [
        {
            "byteLength" : 28596,
            "uri" : "data:application/octet-stream;base64,"
        }
    ]
}
