{
    "asset" : {
        "generator" : "Khronos glTF Blender I/O v1.2.75",
        "version" : "2.0"
    },
    "scene" : 0,
    "scenes" : [
        {
            "name" : "Scene",
            "nodes" : [
                0
            ]
        }
    ],
    "nodes" : [
        {
            "mesh" : 0,
            "name" : "Cylinder"
        }
    ],
    "materials" : [
        {
            "doubleSided" : true,
            "emissiveFactor" : [
                0,
                0,
                0
            ],
            "name" : "Material.003",
            "pbrMetallicRoughness" : {
                "baseColorTexture" : {
                    "index" : 0,
                    "texCoord" : 0
                },
                "metallicFactor" : 0,
                "roughnessFactor" : 0.5
            }
        }
    ],
    "meshes" : [
        {
            "name" : "Cylinder",
            "primitives" : [
                {
                    "attributes" : {
                        "POSITION" : 0,
                        "NORMAL" : 1,
                        "TEXCOORD_0" : 2
                    },
                    "indices" : 3,
                    "material" : 0
                }
            ]
        }
    ],
    "textures" : [
        {
            "source" : 0
        }
    ],
    "images" : [
        {
            "bufferView" : 4,
            "mimeType" : "image/png",
            "name" : "matsimple"
        }
    ],
    "accessors" : [
        {
            "bufferView" : 0,
            "componentType" : 5126,
            "count" : 582,
            "max" : [
                0.013571999967098236,
                0.17828470468521118,
                0.06371375173330307
            ],
            "min" : [
                -0.013571999967098236,
                -0.01760856807231903,
                -0.05609807372093201
            ],
            "type" : "VEC3"
        },
        {
            "bufferView" : 1,
            "componentType" : 5126,
            "count" : 582,
            "type" : "VEC3"
        },
        {
            "bufferView" : 2,
            "componentType" : 5126,
            "count" : 582,
            "type" : "VEC2"
        },
        {
            "bufferView" : 3,
            "componentType" : 5123,
            "count" : 876,
            "type" : "SCALAR"
        }
    ],
    "bufferViews" : [
        {
            "buffer" : 0,
            "byteLength" : 6984,
            "byteOffset" : 0
        },
        {
            "buffer" : 0,
            "byteLength" : 6984,
            "byteOffset" : 6984
        },
        {
            "buffer" : 0,
            "byteLength" : 4656,
            "byteOffset" : 13968
        },
        {
            "buffer" : 0,
            "byteLength" : 1752,
            "byteOffset" : 18624
        },
        {
            "buffer" : 0,
            "byteLength" : 166,
            "byteOffset" : 20376
        }
    ],
    "buffers" : [
        {
            "byteLength" : 20544,
            "uri" : "data:application/octet-stream;base64,"
        }
    ]
}
