{
    "asset" : {
        "generator" : "Khronos glTF Blender I/O v1.2.75",
        "version" : "2.0"
    },
    "scene" : 0,
    "scenes" : [
        {
            "name" : "Scene",
            "nodes" : [
                0
            ]
        }
    ],
    "nodes" : [
        {
            "mesh" : 0,
            "name" : "Cylinder",
            "translation" : [
                0,
                0.06649678200483322,
                0
            ]
        }
    ],
    "materials" : [
        {
            "doubleSided" : true,
            "emissiveFactor" : [
                0,
                0,
                0
            ],
            "name" : "Material.003",
            "pbrMetallicRoughness" : {
                "baseColorTexture" : {
                    "index" : 0,
                    "texCoord" : 0
                },
                "metallicFactor" : 0,
                "roughnessFactor" : 0.5
            }
        }
    ],
    "meshes" : [
        {
            "name" : "Cylinder",
            "primitives" : [
                {
                    "attributes" : {
                        "POSITION" : 0,
                        "NORMAL" : 1,
                        "TEXCOORD_0" : 2
                    },
                    "indices" : 3,
                    "material" : 0
                }
            ]
        }
    ],
    "textures" : [
        {
            "source" : 0
        }
    ],
    "images" : [
        {
            "bufferView" : 4,
            "mimeType" : "image/png",
            "name" : "matsimple"
        }
    ],
    "accessors" : [
        {
            "bufferView" : 0,
            "componentType" : 5126,
            "count" : 268,
            "max" : [
                0.020418114960193634,
                0.08608660101890564,
                0.03183304890990257
            ],
            "min" : [
                -0.020418114960193634,
                -0.08410535007715225,
                -0.03183304890990257
            ],
            "type" : "VEC3"
        },
        {
            "bufferView" : 1,
            "componentType" : 5126,
            "count" : 268,
            "type" : "VEC3"
        },
        {
            "bufferView" : 2,
            "componentType" : 5126,
            "count" : 268,
            "type" : "VEC2"
        },
        {
            "bufferView" : 3,
            "componentType" : 5123,
            "count" : 444,
            "type" : "SCALAR"
        }
    ],
    "bufferViews" : [
        {
            "buffer" : 0,
            "byteLength" : 3216,
            "byteOffset" : 0
        },
        {
            "buffer" : 0,
            "byteLength" : 3216,
            "byteOffset" : 3216
        },
        {
            "buffer" : 0,
            "byteLength" : 2144,
            "byteOffset" : 6432
        },
        {
            "buffer" : 0,
            "byteLength" : 888,
            "byteOffset" : 8576
        },
        {
            "buffer" : 0,
            "byteLength" : 166,
            "byteOffset" : 9464
        }
    ],
    "buffers" : [
        {
            "byteLength" : 9632,
            "uri" : "data:application/octet-stream;base64,"
        }
    ]
}
