{
    "asset" : {
        "generator" : "Khronos glTF Blender I/O v1.2.75",
        "version" : "2.0"
    },
    "scene" : 0,
    "scenes" : [
        {
            "name" : "Scene",
            "nodes" : [
                0
            ]
        }
    ],
    "nodes" : [
        {
            "mesh" : 0,
            "name" : "Cylinder.001"
        }
    ],
    "materials" : [
        {
            "emissiveFactor" : [
                0,
                0,
                0
            ],
            "name" : "Material.002",
            "pbrMetallicRoughness" : {
                "baseColorTexture" : {
                    "index" : 0,
                    "texCoord" : 0
                },
                "metallicFactor" : 0,
                "roughnessFactor" : 0.5
            }
        }
    ],
    "meshes" : [
        {
            "name" : "Cylinder.001",
            "primitives" : [
                {
                    "attributes" : {
                        "POSITION" : 0,
                        "NORMAL" : 1,
                        "TEXCOORD_0" : 2
                    },
                    "indices" : 3,
                    "material" : 0
                }
            ]
        }
    ],
    "textures" : [
        {
            "source" : 0
        }
    ],
    "images" : [
        {
            "bufferView" : 4,
            "mimeType" : "image/png",
            "name" : "matsimple"
        }
    ],
    "accessors" : [
        {
            "bufferView" : 0,
            "componentType" : 5126,
            "count" : 868,
            "max" : [
                0.017985984683036804,
                0.1389414519071579,
                0.24515800178050995
            ],
            "min" : [
                -0.017985984683036804,
                -0.01275855302810669,
                -0.49443915486335754
            ],
            "type" : "VEC3"
        },
        {
            "bufferView" : 1,
            "componentType" : 5126,
            "count" : 868,
            "type" : "VEC3"
        },
        {
            "bufferView" : 2,
            "componentType" : 5126,
            "count" : 868,
            "type" : "VEC2"
        },
        {
            "bufferView" : 3,
            "componentType" : 5123,
            "count" : 1368,
            "type" : "SCALAR"
        }
    ],
    "bufferViews" : [
        {
            "buffer" : 0,
            "byteLength" : 10416,
            "byteOffset" : 0
        },
        {
            "buffer" : 0,
            "byteLength" : 10416,
            "byteOffset" : 10416
        },
        {
            "buffer" : 0,
            "byteLength" : 6944,
            "byteOffset" : 20832
        },
        {
            "buffer" : 0,
            "byteLength" : 2736,
            "byteOffset" : 27776
        },
        {
            "buffer" : 0,
            "byteLength" : 166,
            "byteOffset" : 30512
        }
    ],
    "buffers" : [
        {
            "byteLength" : 30680,
            "uri" : "data:application/octet-stream;base64,"
        }
    ]
}
