{
    "asset" : {
        "generator" : "Khronos glTF Blender I/O v1.2.75",
        "version" : "2.0"
    },
    "scene" : 0,
    "scenes" : [
        {
            "name" : "Scene",
            "nodes" : [
                0
            ]
        }
    ],
    "nodes" : [
        {
            "mesh" : 0,
            "name" : "Cylinder.001"
        }
    ],
    "materials" : [
        {
            "doubleSided" : true,
            "emissiveFactor" : [
                0,
                0,
                0
            ],
            "name" : "Material",
            "pbrMetallicRoughness" : {
                "baseColorTexture" : {
                    "index" : 0,
                    "texCoord" : 0
                },
                "metallicFactor" : 0,
                "roughnessFactor" : 0.5
            }
        }
    ],
    "meshes" : [
        {
            "name" : "Cylinder.001",
            "primitives" : [
                {
                    "attributes" : {
                        "POSITION" : 0,
                        "NORMAL" : 1,
                        "TEXCOORD_0" : 2
                    },
                    "indices" : 3,
                    "material" : 0
                }
            ]
        }
    ],
    "textures" : [
        {
            "source" : 0
        }
    ],
    "images" : [
        {
            "bufferView" : 4,
            "mimeType" : "image/png",
            "name" : "matsimple"
        }
    ],
    "accessors" : [
        {
            "bufferView" : 0,
            "componentType" : 5126,
            "count" : 496,
            "max" : [
                0.009087522514164448,
                0.08774039894342422,
                0.006397647317498922
            ],
            "min" : [
                -0.011299806647002697,
                -0.044406551867723465,
                -0.006397647317498922
            ],
            "type" : "VEC3"
        },
        {
            "bufferView" : 1,
            "componentType" : 5126,
            "count" : 496,
            "type" : "VEC3"
        },
        {
            "bufferView" : 2,
            "componentType" : 5126,
            "count" : 496,
            "type" : "VEC2"
        },
        {
            "bufferView" : 3,
            "componentType" : 5123,
            "count" : 744,
            "type" : "SCALAR"
        }
    ],
    "bufferViews" : [
        {
            "buffer" : 0,
            "byteLength" : 5952,
            "byteOffset" : 0
        },
        {
            "buffer" : 0,
            "byteLength" : 5952,
            "byteOffset" : 5952
        },
        {
            "buffer" : 0,
            "byteLength" : 3968,
            "byteOffset" : 11904
        },
        {
            "buffer" : 0,
            "byteLength" : 1488,
            "byteOffset" : 15872
        },
        {
            "buffer" : 0,
            "byteLength" : 166,
            "byteOffset" : 17360
        }
    ],
    "buffers" : [
        {
            "byteLength" : 17528,
            "uri" : "data:application/octet-stream;base64,"
        }
    ]
}
