{
    "asset" : {
        "generator" : "Khronos glTF Blender I/O v1.2.75",
        "version" : "2.0"
    },
    "scene" : 0,
    "scenes" : [
        {
            "name" : "Scene",
            "nodes" : [
                0
            ]
        }
    ],
    "nodes" : [
        {
            "mesh" : 0,
            "name" : "Cube"
        }
    ],
    "materials" : [
        {
            "doubleSided" : true,
            "emissiveFactor" : [
                0,
                0,
                0
            ],
            "name" : "Material",
            "pbrMetallicRoughness" : {
                "baseColorTexture" : {
                    "index" : 0,
                    "texCoord" : 0
                },
                "metallicFactor" : 0,
                "roughnessFactor" : 0.5
            }
        }
    ],
    "meshes" : [
        {
            "name" : "Cube",
            "primitives" : [
                {
                    "attributes" : {
                        "POSITION" : 0,
                        "NORMAL" : 1,
                        "TEXCOORD_0" : 2
                    },
                    "indices" : 3,
                    "material" : 0
                }
            ]
        }
    ],
    "textures" : [
        {
            "source" : 0
        }
    ],
    "images" : [
        {
            "bufferView" : 4,
            "mimeType" : "image/png",
            "name" : "matsimple"
        }
    ],
    "accessors" : [
        {
            "bufferView" : 0,
            "componentType" : 5126,
            "count" : 622,
            "max" : [
                0.1159612387418747,
                0.040106937289237976,
                0.008796717040240765
            ],
            "min" : [
                -0.11075654625892639,
                0.00037352554500102997,
                -0.008796721696853638
            ],
            "type" : "VEC3"
        },
        {
            "bufferView" : 1,
            "componentType" : 5126,
            "count" : 622,
            "type" : "VEC3"
        },
        {
            "bufferView" : 2,
            "componentType" : 5126,
            "count" : 622,
            "type" : "VEC2"
        },
        {
            "bufferView" : 3,
            "componentType" : 5123,
            "count" : 1020,
            "type" : "SCALAR"
        }
    ],
    "bufferViews" : [
        {
            "buffer" : 0,
            "byteLength" : 7464,
            "byteOffset" : 0
        },
        {
            "buffer" : 0,
            "byteLength" : 7464,
            "byteOffset" : 7464
        },
        {
            "buffer" : 0,
            "byteLength" : 4976,
            "byteOffset" : 14928
        },
        {
            "buffer" : 0,
            "byteLength" : 2040,
            "byteOffset" : 19904
        },
        {
            "buffer" : 0,
            "byteLength" : 166,
            "byteOffset" : 21944
        }
    ],
    "buffers" : [
        {
            "byteLength" : 22112,
            "uri" : "data:application/octet-stream;base64,"
        }
    ]
}
