{
    "asset" : {
        "generator" : "Khronos glTF Blender I/O v1.2.75",
        "version" : "2.0"
    },
    "scene" : 0,
    "scenes" : [
        {
            "name" : "Scene",
            "nodes" : [
                0
            ]
        }
    ],
    "nodes" : [
        {
            "mesh" : 0,
            "name" : "Cylinder"
        }
    ],
    "materials" : [
        {
            "emissiveFactor" : [
                0,
                0,
                0
            ],
            "name" : "Material",
            "pbrMetallicRoughness" : {
                "baseColorTexture" : {
                    "index" : 0,
                    "texCoord" : 0
                },
                "metallicFactor" : 0,
                "roughnessFactor" : 0.5
            }
        }
    ],
    "meshes" : [
        {
            "name" : "Cylinder.001",
            "primitives" : [
                {
                    "attributes" : {
                        "POSITION" : 0,
                        "NORMAL" : 1,
                        "TEXCOORD_0" : 2
                    },
                    "indices" : 3,
                    "material" : 0
                }
            ]
        }
    ],
    "textures" : [
        {
            "source" : 0
        }
    ],
    "images" : [
        {
            "bufferView" : 4,
            "mimeType" : "image/png",
            "name" : "matsimple"
        }
    ],
    "accessors" : [
        {
            "bufferView" : 0,
            "componentType" : 5126,
            "count" : 1870,
            "max" : [
                0.13675664365291595,
                0.11011539399623871,
                0.03351128101348877
            ],
            "min" : [
                -0.15806502103805542,
                -0.002247605472803116,
                -0.03351128101348877
            ],
            "type" : "VEC3"
        },
        {
            "bufferView" : 1,
            "componentType" : 5126,
            "count" : 1870,
            "type" : "VEC3"
        },
        {
            "bufferView" : 2,
            "componentType" : 5126,
            "count" : 1870,
            "type" : "VEC2"
        },
        {
            "bufferView" : 3,
            "componentType" : 5123,
            "count" : 3078,
            "type" : "SCALAR"
        }
    ],
    "bufferViews" : [
        {
            "buffer" : 0,
            "byteLength" : 22440,
            "byteOffset" : 0
        },
        {
            "buffer" : 0,
            "byteLength" : 22440,
            "byteOffset" : 22440
        },
        {
            "buffer" : 0,
            "byteLength" : 14960,
            "byteOffset" : 44880
        },
        {
            "buffer" : 0,
            "byteLength" : 6156,
            "byteOffset" : 59840
        },
        {
            "buffer" : 0,
            "byteLength" : 166,
            "byteOffset" : 65996
        }
    ],
    "buffers" : [
        {
            "byteLength" : 66164,
            "uri" : "data:application/octet-stream;base64,"
        }
    ]
}
