{
    "asset" : {
        "generator" : "Khronos glTF Blender I/O v1.2.75",
        "version" : "2.0"
    },
    "scene" : 0,
    "scenes" : [
        {
            "name" : "Scene",
            "nodes" : [
                0
            ]
        }
    ],
    "nodes" : [
        {
            "mesh" : 0,
            "name" : "Cylinder"
        }
    ],
    "materials" : [
        {
            "doubleSided" : true,
            "emissiveFactor" : [
                0,
                0,
                0
            ],
            "name" : "Material.002",
            "pbrMetallicRoughness" : {
                "baseColorTexture" : {
                    "index" : 0,
                    "texCoord" : 0
                },
                "metallicFactor" : 0,
                "roughnessFactor" : 0.5
            }
        }
    ],
    "meshes" : [
        {
            "name" : "Cylinder.002",
            "primitives" : [
                {
                    "attributes" : {
                        "POSITION" : 0,
                        "NORMAL" : 1,
                        "TEXCOORD_0" : 2
                    },
                    "indices" : 3,
                    "material" : 0
                }
            ]
        }
    ],
    "textures" : [
        {
            "source" : 0
        }
    ],
    "images" : [
        {
            "bufferView" : 4,
            "mimeType" : "image/png",
            "name" : "matsimple"
        }
    ],
    "accessors" : [
        {
            "bufferView" : 0,
            "componentType" : 5126,
            "count" : 642,
            "max" : [
                0.011294498108327389,
                0.18905606865882874,
                0.011294498108327389
            ],
            "min" : [
                -0.011294499970972538,
                -0.01468476839363575,
                -0.011294498108327389
            ],
            "type" : "VEC3"
        },
        {
            "bufferView" : 1,
            "componentType" : 5126,
            "count" : 642,
            "type" : "VEC3"
        },
        {
            "bufferView" : 2,
            "componentType" : 5126,
            "count" : 642,
            "type" : "VEC2"
        },
        {
            "bufferView" : 3,
            "componentType" : 5123,
            "count" : 984,
            "type" : "SCALAR"
        }
    ],
    "bufferViews" : [
        {
            "buffer" : 0,
            "byteLength" : 7704,
            "byteOffset" : 0
        },
        {
            "buffer" : 0,
            "byteLength" : 7704,
            "byteOffset" : 7704
        },
        {
            "buffer" : 0,
            "byteLength" : 5136,
            "byteOffset" : 15408
        },
        {
            "buffer" : 0,
            "byteLength" : 1968,
            "byteOffset" : 20544
        },
        {
            "buffer" : 0,
            "byteLength" : 166,
            "byteOffset" : 22512
        }
    ],
    "buffers" : [
        {
            "byteLength" : 22680,
            "uri" : "data:application/octet-stream;base64,"
        }
    ]
}
