{
    "asset" : {
        "generator" : "Khronos glTF Blender I/O v1.2.75",
        "version" : "2.0"
    },
    "scene" : 0,
    "scenes" : [
        {
            "name" : "Scene",
            "nodes" : [
                0
            ]
        }
    ],
    "nodes" : [
        {
            "mesh" : 0,
            "name" : "Cube"
        }
    ],
    "materials" : [
        {
            "emissiveFactor" : [
                0,
                0,
                0
            ],
            "name" : "Material.006",
            "pbrMetallicRoughness" : {
                "baseColorTexture" : {
                    "index" : 0,
                    "texCoord" : 0
                },
                "metallicFactor" : 0,
                "roughnessFactor" : 0.5
            }
        }
    ],
    "meshes" : [
        {
            "name" : "Cube.002",
            "primitives" : [
                {
                    "attributes" : {
                        "POSITION" : 0,
                        "NORMAL" : 1,
                        "TEXCOORD_0" : 2
                    },
                    "indices" : 3,
                    "material" : 0
                }
            ]
        }
    ],
    "textures" : [
        {
            "source" : 0
        }
    ],
    "images" : [
        {
            "bufferView" : 4,
            "mimeType" : "image/png",
            "name" : "matsimple"
        }
    ],
    "accessors" : [
        {
            "bufferView" : 0,
            "componentType" : 5126,
            "count" : 721,
            "max" : [
                0.006098000332713127,
                0.0029811705462634563,
                0.10449089109897614
            ],
            "min" : [
                -0.0906587466597557,
                -0.0023391637951135635,
                -0.07519156485795975
            ],
            "type" : "VEC3"
        },
        {
            "bufferView" : 1,
            "componentType" : 5126,
            "count" : 721,
            "type" : "VEC3"
        },
        {
            "bufferView" : 2,
            "componentType" : 5126,
            "count" : 721,
            "type" : "VEC2"
        },
        {
            "bufferView" : 3,
            "componentType" : 5123,
            "count" : 1482,
            "type" : "SCALAR"
        }
    ],
    "bufferViews" : [
        {
            "buffer" : 0,
            "byteLength" : 8652,
            "byteOffset" : 0
        },
        {
            "buffer" : 0,
            "byteLength" : 8652,
            "byteOffset" : 8652
        },
        {
            "buffer" : 0,
            "byteLength" : 5768,
            "byteOffset" : 17304
        },
        {
            "buffer" : 0,
            "byteLength" : 2964,
            "byteOffset" : 23072
        },
        {
            "buffer" : 0,
            "byteLength" : 166,
            "byteOffset" : 26036
        }
    ],
    "buffers" : [
        {
            "byteLength" : 26204,
            "uri" : "data:application/octet-stream;base64,"
        }
    ]
}
