{
    "asset" : {
        "generator" : "Khronos glTF Blender I/O v1.2.75",
        "version" : "2.0"
    },
    "scene" : 0,
    "scenes" : [
        {
            "name" : "Scene",
            "nodes" : [
                0
            ]
        }
    ],
    "nodes" : [
        {
            "mesh" : 0,
            "name" : "Cylinder.001"
        }
    ],
    "materials" : [
        {
            "emissiveFactor" : [
                0,
                0,
                0
            ],
            "name" : "Material",
            "pbrMetallicRoughness" : {
                "baseColorTexture" : {
                    "index" : 0,
                    "texCoord" : 0
                },
                "metallicFactor" : 0,
                "roughnessFactor" : 0.5
            }
        }
    ],
    "meshes" : [
        {
            "name" : "Cylinder.001",
            "primitives" : [
                {
                    "attributes" : {
                        "POSITION" : 0,
                        "NORMAL" : 1,
                        "TEXCOORD_0" : 2
                    },
                    "indices" : 3,
                    "material" : 0
                }
            ]
        }
    ],
    "textures" : [
        {
            "source" : 0
        }
    ],
    "images" : [
        {
            "bufferView" : 4,
            "mimeType" : "image/png",
            "name" : "matsimple"
        }
    ],
    "accessors" : [
        {
            "bufferView" : 0,
            "componentType" : 5126,
            "count" : 1051,
            "max" : [
                0.01748853363096714,
                0.42033159732818604,
                0.057275254279375076
            ],
            "min" : [
                -0.01748853363096714,
                -0.05957717448472977,
                -0.05970434844493866
            ],
            "type" : "VEC3"
        },
        {
            "bufferView" : 1,
            "componentType" : 5126,
            "count" : 1051,
            "type" : "VEC3"
        },
        {
            "bufferView" : 2,
            "componentType" : 5126,
            "count" : 1051,
            "type" : "VEC2"
        },
        {
            "bufferView" : 3,
            "componentType" : 5123,
            "count" : 1671,
            "type" : "SCALAR"
        }
    ],
    "bufferViews" : [
        {
            "buffer" : 0,
            "byteLength" : 12612,
            "byteOffset" : 0
        },
        {
            "buffer" : 0,
            "byteLength" : 12612,
            "byteOffset" : 12612
        },
        {
            "buffer" : 0,
            "byteLength" : 8408,
            "byteOffset" : 25224
        },
        {
            "buffer" : 0,
            "byteLength" : 3342,
            "byteOffset" : 33632
        },
        {
            "buffer" : 0,
            "byteLength" : 166,
            "byteOffset" : 36976
        }
    ],
    "buffers" : [
        {
            "byteLength" : 37144,
            "uri" : "data:application/octet-stream;base64,"
        }
    ]
}
