{
    "asset" : {
        "generator" : "Khronos glTF Blender I/O v1.2.75",
        "version" : "2.0"
    },
    "scene" : 0,
    "scenes" : [
        {
            "name" : "Scene",
            "nodes" : [
                0
            ]
        }
    ],
    "nodes" : [
        {
            "mesh" : 0,
            "name" : "Cylinder"
        }
    ],
    "materials" : [
        {
            "doubleSided" : true,
            "emissiveFactor" : [
                0,
                0,
                0
            ],
            "name" : "Material.001",
            "pbrMetallicRoughness" : {
                "baseColorTexture" : {
                    "index" : 0,
                    "texCoord" : 0
                },
                "metallicFactor" : 0,
                "roughnessFactor" : 0.5
            }
        }
    ],
    "meshes" : [
        {
            "name" : "Cylinder",
            "primitives" : [
                {
                    "attributes" : {
                        "POSITION" : 0,
                        "NORMAL" : 1,
                        "TEXCOORD_0" : 2
                    },
                    "indices" : 3,
                    "material" : 0
                }
            ]
        }
    ],
    "textures" : [
        {
            "source" : 0
        }
    ],
    "images" : [
        {
            "bufferView" : 4,
            "mimeType" : "image/png",
            "name" : "matsimple"
        }
    ],
    "accessors" : [
        {
            "bufferView" : 0,
            "componentType" : 5126,
            "count" : 566,
            "max" : [
                0.009093822911381721,
                0.205917626619339,
                0.03309367969632149
            ],
            "min" : [
                -0.017037710174918175,
                -0.05079084262251854,
                -0.032486189156770706
            ],
            "type" : "VEC3"
        },
        {
            "bufferView" : 1,
            "componentType" : 5126,
            "count" : 566,
            "type" : "VEC3"
        },
        {
            "bufferView" : 2,
            "componentType" : 5126,
            "count" : 566,
            "type" : "VEC2"
        },
        {
            "bufferView" : 3,
            "componentType" : 5123,
            "count" : 864,
            "type" : "SCALAR"
        }
    ],
    "bufferViews" : [
        {
            "buffer" : 0,
            "byteLength" : 6792,
            "byteOffset" : 0
        },
        {
            "buffer" : 0,
            "byteLength" : 6792,
            "byteOffset" : 6792
        },
        {
            "buffer" : 0,
            "byteLength" : 4528,
            "byteOffset" : 13584
        },
        {
            "buffer" : 0,
            "byteLength" : 1728,
            "byteOffset" : 18112
        },
        {
            "buffer" : 0,
            "byteLength" : 166,
            "byteOffset" : 19840
        }
    ],
    "buffers" : [
        {
            "byteLength" : 20008,
            "uri" : "data:application/octet-stream;base64,"
        }
    ]
}
