{
    "asset" : {
        "generator" : "Khronos glTF Blender I/O v1.2.75",
        "version" : "2.0"
    },
    "scene" : 0,
    "scenes" : [
        {
            "name" : "Scene",
            "nodes" : [
                0
            ]
        }
    ],
    "nodes" : [
        {
            "mesh" : 0,
            "name" : "Cube"
        }
    ],
    "materials" : [
        {
            "emissiveFactor" : [
                0,
                0,
                0
            ],
            "name" : "Material",
            "pbrMetallicRoughness" : {
                "baseColorTexture" : {
                    "index" : 0,
                    "texCoord" : 0
                },
                "metallicFactor" : 0,
                "roughnessFactor" : 0.5
            }
        }
    ],
    "meshes" : [
        {
            "name" : "Cube",
            "primitives" : [
                {
                    "attributes" : {
                        "POSITION" : 0,
                        "NORMAL" : 1,
                        "TEXCOORD_0" : 2
                    },
                    "indices" : 3,
                    "material" : 0
                }
            ]
        }
    ],
    "textures" : [
        {
            "source" : 0
        }
    ],
    "images" : [
        {
            "bufferView" : 4,
            "mimeType" : "image/png",
            "name" : "matsimple"
        }
    ],
    "accessors" : [
        {
            "bufferView" : 0,
            "componentType" : 5126,
            "count" : 498,
            "max" : [
                0.0065152146853506565,
                0.1359187811613083,
                0.019336968660354614
            ],
            "min" : [
                -0.0065152146853506565,
                -0.03799343854188919,
                -0.04566268250346184
            ],
            "type" : "VEC3"
        },
        {
            "bufferView" : 1,
            "componentType" : 5126,
            "count" : 498,
            "type" : "VEC3"
        },
        {
            "bufferView" : 2,
            "componentType" : 5126,
            "count" : 498,
            "type" : "VEC2"
        },
        {
            "bufferView" : 3,
            "componentType" : 5123,
            "count" : 912,
            "type" : "SCALAR"
        }
    ],
    "bufferViews" : [
        {
            "buffer" : 0,
            "byteLength" : 5976,
            "byteOffset" : 0
        },
        {
            "buffer" : 0,
            "byteLength" : 5976,
            "byteOffset" : 5976
        },
        {
            "buffer" : 0,
            "byteLength" : 3984,
            "byteOffset" : 11952
        },
        {
            "buffer" : 0,
            "byteLength" : 1824,
            "byteOffset" : 15936
        },
        {
            "buffer" : 0,
            "byteLength" : 166,
            "byteOffset" : 17760
        }
    ],
    "buffers" : [
        {
            "byteLength" : 17928,
            "uri" : "data:application/octet-stream;base64,"
        }
    ]
}
