{
    "asset" : {
        "generator" : "Khronos glTF Blender I/O v1.2.75",
        "version" : "2.0"
    },
    "scene" : 0,
    "scenes" : [
        {
            "name" : "Scene",
            "nodes" : [
                0
            ]
        }
    ],
    "nodes" : [
        {
            "mesh" : 0,
            "name" : "Cube"
        }
    ],
    "materials" : [
        {
            "emissiveFactor" : [
                0,
                0,
                0
            ],
            "name" : "Material.003",
            "pbrMetallicRoughness" : {
                "baseColorTexture" : {
                    "index" : 0,
                    "texCoord" : 0
                },
                "metallicFactor" : 0,
                "roughnessFactor" : 0.5
            }
        }
    ],
    "meshes" : [
        {
            "name" : "Cube.002",
            "primitives" : [
                {
                    "attributes" : {
                        "POSITION" : 0,
                        "NORMAL" : 1,
                        "TEXCOORD_0" : 2
                    },
                    "indices" : 3,
                    "material" : 0
                }
            ]
        }
    ],
    "textures" : [
        {
            "source" : 0
        }
    ],
    "images" : [
        {
            "bufferView" : 4,
            "mimeType" : "image/png",
            "name" : "matsimple"
        }
    ],
    "accessors" : [
        {
            "bufferView" : 0,
            "componentType" : 5126,
            "count" : 458,
            "max" : [
                0.027796311303973198,
                0.1340460181236267,
                0.0056544034741818905
            ],
            "min" : [
                -0.024103548377752304,
                -0.07191071659326553,
                -0.004730958957225084
            ],
            "type" : "VEC3"
        },
        {
            "bufferView" : 1,
            "componentType" : 5126,
            "count" : 458,
            "type" : "VEC3"
        },
        {
            "bufferView" : 2,
            "componentType" : 5126,
            "count" : 458,
            "type" : "VEC2"
        },
        {
            "bufferView" : 3,
            "componentType" : 5123,
            "count" : 714,
            "type" : "SCALAR"
        }
    ],
    "bufferViews" : [
        {
            "buffer" : 0,
            "byteLength" : 5496,
            "byteOffset" : 0
        },
        {
            "buffer" : 0,
            "byteLength" : 5496,
            "byteOffset" : 5496
        },
        {
            "buffer" : 0,
            "byteLength" : 3664,
            "byteOffset" : 10992
        },
        {
            "buffer" : 0,
            "byteLength" : 1428,
            "byteOffset" : 14656
        },
        {
            "buffer" : 0,
            "byteLength" : 166,
            "byteOffset" : 16084
        }
    ],
    "buffers" : [
        {
            "byteLength" : 16252,
            "uri" : "data:application/octet-stream;base64,"
        }
    ]
}
